<?xml version="1.0" standalone="no"?><!DOCTYPE svg PUBLIC "-//W3C//DTD SVG 1.1//EN" "http://www.w3.org/Graphics/SVG/1.1/DTD/svg11.dtd"><svg t="1553556483213" class="icon" style="" viewBox="0 0 1024 1024" version="1.1" xmlns="http://www.w3.org/2000/svg" p-id="41568" xmlns:xlink="http://www.w3.org/1999/xlink" width="200" height="200"><defs><style type="text/css"></style></defs><path d="M81.141018 432.004061h126.055974c17.672498 0 31.998785 14.326287 31.998785 31.998785v479.976656c0 17.672498-14.326287 31.998785-31.998785 31.998785H109.37506c-16.942881 0-30.948873-13.205766-31.943527-30.118972L49.197492 465.880613c-1.037632-17.641799 12.422937-32.784684 30.064736-33.822317a32.846082 32.846082 0 0 1 1.87879-0.054235z m621.905133-42.0937c-4.442172 13.771655-9.467629 27.690666-15.075347 41.757033H878.863459c53.017494 0 95.995331 42.97886 95.995331 95.995331 0 9.168824-1.313925 18.290575-3.900843 27.086915L860.677261 929.702334c-8.010441 27.236318-33.006741 45.939285-61.396325 45.939285H367.18887c-35.344996 0-63.996546-28.652574-63.996546-63.996546V431.667394c79.287811-63.996546 136.441509-127.994116 171.46007-191.990663 52.528354-95.995331 20.530592-191.655018 84.228333-191.655018 128.292921 0 169.564907 99.571786 169.564907 190.84763 0 41.355897-6.231935 84.289732-18.695804 128.800481l-6.703679 22.240537z" p-id="41569"></path></svg>