<?xml version="1.0" standalone="no"?><!DOCTYPE svg PUBLIC "-//W3C//DTD SVG 1.1//EN" "http://www.w3.org/Graphics/SVG/1.1/DTD/svg11.dtd"><svg t="1553556737850" class="icon" style="" viewBox="0 0 1024 1024" version="1.1" xmlns="http://www.w3.org/2000/svg" p-id="52797" xmlns:xlink="http://www.w3.org/1999/xlink" width="200" height="200"><defs><style type="text/css"></style></defs><path d="M512 4.375657c-280.357246 0-507.624343 227.275283-507.624343 507.624343s227.267097 507.624343 507.624343 507.624343 507.624343-227.275283 507.624343-507.624343S792.356222 4.375657 512 4.375657z m0 983.5221c-262.832104 0-475.897757-213.069747-475.897757-475.897757S249.167896 36.102243 512 36.102243s475.897757 213.069747 475.897757 475.897757-213.065653 475.897757-475.897757 475.897757z" p-id="52798"></path><path d="M512 607.179756c69.944002 0 126.906342-56.915267 126.906342-127.107933V321.842079c0-70.191642-56.819077-127.107933-126.906342-127.107933-69.944002 0-126.906342 56.915267-126.906342 127.107933v158.229744c0 70.191642 56.819077 127.107933 126.906342 127.107933z" p-id="52799"></path><path d="M718.221782 448.546829c-17.521049 0-31.726585 14.205537-31.726586 31.726586 0 96.371908-78.123288 174.49622-174.496219 174.496219S337.502757 576.646346 337.502757 480.273415c0-17.521049-14.205537-31.726585-31.726585-31.726586s-31.726585 14.205537-31.726586 31.726586c0 120.66315 89.804329 220.335221 206.222805 235.857752v97.270371c0 17.521049 14.205537 31.726585 31.726586 31.726585s31.726585-14.205537 31.726585-31.726585v-97.270371c116.418476-15.522532 206.222805-115.194602 206.222805-235.857752 0-17.521049-14.205537-31.726585-31.726585-31.726586z" p-id="52800"></path></svg>