<?xml version="1.0" standalone="no"?><!DOCTYPE svg PUBLIC "-//W3C//DTD SVG 1.1//EN" "http://www.w3.org/Graphics/SVG/1.1/DTD/svg11.dtd"><svg t="1553556711747" class="icon" style="" viewBox="0 0 1024 1024" version="1.1" xmlns="http://www.w3.org/2000/svg" p-id="51698" xmlns:xlink="http://www.w3.org/1999/xlink" width="200" height="200"><defs><style type="text/css"></style></defs><path d="M320.009338 400.005276c0 63.996546 0 94.871741-31.998785 191.990663-21.331841 65.37801-63.996546 129.375579-127.994116 191.990662h703.966103c-63.996546-63.996546-106.661252-127.994116-127.994116-191.990662-31.998785-95.995331-31.998785-127.994116-31.998785-191.990663 0-127.994116-31.998785-223.989447-191.990662-223.989447-154.75562 0-191.989639 95.995331-191.989639 223.989447z m282.523585 447.978895H421.467077c13.178137 37.284161 48.735981 63.996546 90.532923 63.996546s77.354785-26.712385 90.532923-63.996546z m3.220344-724.683961c114.993011 31.42164 162.233941 127.552048 162.233942 276.705066 0 89.716324 4.64888 99.556437 28.713972 171.752736 17.921161 53.764508 55.119365 109.561301 112.532982 166.975942 40.316218 40.316218 11.762905 109.249193-45.252646 109.249193H668.791999c-14.823614 73.028247-79.389118 127.994116-156.791999 127.994116S370.031615 921.011394 355.208001 847.984171H160.016437c-57.352219 0-85.751013-69.63087-44.756343-109.74038 57.057507-55.825446 94.02035-111.270223 111.967094-166.273955 15.731286-47.745421 25.325805-105.065917 28.78458-171.96456 0-146.069797 49.270147-243.450684 162.078399-275.986705 9.200546-43.417859 47.750537-75.996858 93.909833-75.996858 45.903469 0 84.282568 32.219819 93.753267 75.278497z" p-id="51699"></path></svg>