<?xml version="1.0" standalone="no"?><!DOCTYPE svg PUBLIC "-//W3C//DTD SVG 1.1//EN" "http://www.w3.org/Graphics/SVG/1.1/DTD/svg11.dtd"><svg t="1553556466267" class="icon" style="" viewBox="0 0 1024 1024" version="1.1" xmlns="http://www.w3.org/2000/svg" p-id="40835" xmlns:xlink="http://www.w3.org/1999/xlink" width="200" height="200"><defs><style type="text/css"></style></defs><path d="M607.995331 639.994116c-17.672498 0-31.998785 14.326287-31.998785 31.998785v31.998785c0 17.672498 14.326287 31.998785 31.998785 31.998784h31.998785c17.672498 0 31.998785-14.326287 31.998785-31.998784v-31.998785c0-17.672498-14.326287-31.998785-31.998785-31.998785h-31.998785z m-223.989447 0c-17.672498 0-31.998785 14.326287-31.998785 31.998785v31.998785c0 17.672498 14.326287 31.998785 31.998785 31.998784h31.998785c17.672498 0 31.998785-14.326287 31.998785-31.998784v-31.998785c0-17.672498-14.326287-31.998785-31.998785-31.998785h-31.998785z m223.989447-191.991686c-17.672498 0-31.998785 14.326287-31.998785 31.998785v31.998785c0 17.672498 14.326287 31.998785 31.998785 31.998785h31.998785c17.672498 0 31.998785-14.326287 31.998785-31.998785v-31.998785c0-17.672498-14.326287-31.998785-31.998785-31.998785h-31.998785z m-223.989447 0c-17.672498 0-31.998785 14.326287-31.998785 31.998785v31.998785c0 17.672498 14.326287 31.998785 31.998785 31.998785h31.998785c17.672498 0 31.998785-14.326287 31.998785-31.998785v-31.998785c0-17.672498-14.326287-31.998785-31.998785-31.998785h-31.998785z m223.989447-191.990662c-17.672498 0-31.998785 14.326287-31.998785 31.998785v31.998785c0 17.672498 14.326287 31.998785 31.998785 31.998784h31.998785c17.672498 0 31.998785-14.326287 31.998785-31.998784v-31.998785c0-17.672498-14.326287-31.998785-31.998785-31.998785h-31.998785z m-223.989447 0c-17.672498 0-31.998785 14.326287-31.998785 31.998785v31.998785c0 17.672498 14.326287 31.998785 31.998785 31.998784h31.998785c17.672498 0 31.998785-14.326287 31.998785-31.998784v-31.998785c0-17.672498-14.326287-31.998785-31.998785-31.998785h-31.998785zM160.016437 863.98254V160.016437c0-53.016471 42.97886-95.995331 95.995331-95.995331h511.975441c53.016471 0 95.995331 42.97886 95.995331 95.995331v703.966103h95.995331c17.672498 0 31.998785 14.326287 31.998785 31.998785v31.998784c0 17.672498-14.326287 31.998785-31.998785 31.998785H64.021106c-17.672498 0-31.998785-14.326287-31.998785-31.998785v-31.998784c0-17.672498 14.326287-31.998785 31.998785-31.998785h95.995331z" p-id="40836"></path></svg>