<?xml version="1.0" standalone="no"?><!DOCTYPE svg PUBLIC "-//W3C//DTD SVG 1.1//EN" "http://www.w3.org/Graphics/SVG/1.1/DTD/svg11.dtd"><svg t="1553556735136" class="icon" style="" viewBox="0 0 1024 1024" version="1.1" xmlns="http://www.w3.org/2000/svg" p-id="52675" xmlns:xlink="http://www.w3.org/1999/xlink" width="200" height="200"><defs><style type="text/css"></style></defs><path d="M512 959.977871c17.672498 0 31.998785-14.326287 31.998785-31.998785s-14.326287-31.998785-31.998785-31.998785-31.998785 14.326287-31.998785 31.998785 14.326287 31.998785 31.998785 31.998785zM304.009945 96.019891c-26.508747 0-47.998177 21.48943-47.998177 47.998177v671.967318c0 26.508747 21.48943 47.997154 47.998177 47.997154h415.98011c26.508747 0 47.997154-21.48943 47.997154-47.997154V144.017044c0-26.508747-21.48943-47.998177-47.997154-47.998177H304.009945z m-15.999392-63.996547h447.978894c53.016471 0 95.995331 42.97886 95.995331 95.995331v767.96265c0 53.016471-42.97886 95.995331-95.995331 95.995331H288.010553c-53.016471 0-95.995331-42.97886-95.995331-95.995331V128.018675c0-53.017494 42.97886-95.995331 95.995331-95.995331z" p-id="52676"></path></svg>