<?xml version="1.0" standalone="no"?><!DOCTYPE svg PUBLIC "-//W3C//DTD SVG 1.1//EN" "http://www.w3.org/Graphics/SVG/1.1/DTD/svg11.dtd"><svg t="1553556680838" class="icon" style="" viewBox="0 0 1024 1024" version="1.1" xmlns="http://www.w3.org/2000/svg" p-id="50356" xmlns:xlink="http://www.w3.org/1999/xlink" width="200" height="200"><defs><style type="text/css"></style></defs><path d="M557.252647 512l135.75794 135.75794c12.495592 12.495592 12.495592 32.757055 0 45.252647-12.495592 12.495592-32.757055 12.495592-45.252647 0L512 557.252647 376.24206 693.010587c-12.496615 12.496615-32.757055 12.495592-45.252647 0-12.495592-12.495592-12.496615-32.756031 0-45.252647l135.75794-135.75794L330.989413 376.24206c-12.496615-12.496615-12.495592-32.757055 0-45.252647 12.495592-12.495592 32.756031-12.496615 45.252647 0l135.75794 135.75794 135.75794-135.75794c12.495592-12.495592 32.756031-12.495592 45.252647 0 12.495592 12.495592 12.495592 32.757055 0 45.252647L557.252647 512z m-429.233972 0c0 212.062813 171.918511 383.981325 383.981325 383.981325s383.981325-171.918511 383.981325-383.981325S724.06179 128.018675 512 128.018675 128.018675 299.937187 128.018675 512z m-63.997569 0c0-247.406786 200.572108-447.978894 447.978894-447.978894S959.977871 264.593214 959.977871 512 759.405763 959.977871 512 959.977871 64.021106 759.405763 64.021106 512z" p-id="50357"></path></svg>