<?xml version="1.0" standalone="no"?><!DOCTYPE svg PUBLIC "-//W3C//DTD SVG 1.1//EN" "http://www.w3.org/Graphics/SVG/1.1/DTD/svg11.dtd"><svg t="1553556705563" class="icon" style="" viewBox="0 0 1024 1024" version="1.1" xmlns="http://www.w3.org/2000/svg" p-id="51454" xmlns:xlink="http://www.w3.org/1999/xlink" width="200" height="200"><defs><style type="text/css"></style></defs><path d="M423.429779 359.882464c9.996678-9.996678 26.204825-9.996678 36.202526 0l36.202527 36.202526c9.996678 9.996678 9.996678 26.204825 0 36.202527-9.996678 9.996678-26.204825 9.996678-36.202527 0l-36.202526-36.202527c-9.996678-9.997702-9.996678-26.205848 0-36.202526z m-97.469916 235.313353c0-14.137998 11.461029-25.599028 25.599028-25.599028h51.197032c14.137998 0 25.599028 11.461029 25.599028 25.599028 0 14.137998-11.461029 25.599028-25.599028 25.599028h-51.197032c-14.137998 0-25.599028-11.461029-25.599028-25.599028z m665.568585 0c0 14.137998-11.461029 25.599028-25.599028 25.599028h-51.197033c-14.137998 0-25.599028-11.461029-25.599027-25.599028 0-14.137998 11.461029-25.599028 25.599027-25.599028h51.197033c14.137998 0 25.599028 11.461029 25.599028 25.599028z m-97.470939-235.313353c9.996678 9.996678 9.996678 26.204825 0 36.202526l-36.202527 36.202527c-9.996678 9.996678-26.204825 9.996678-36.202526 0-9.996678-9.996678-9.996678-26.204825 0-36.202527l36.202526-36.202526c9.997702-9.997702 26.205848-9.997702 36.202527 0z m-235.313354-97.470939c14.137998 0 25.599028 11.461029 25.599028 25.599028v51.197032c0 14.137998-11.461029 25.599028-25.599028 25.599028s-25.599028-11.461029-25.599027-25.599028v-51.197032c0-14.137998 11.461029-25.599028 25.599027-25.599028z m58.876946 563.173496v-36.679387c0-27.78481 10.571776-51.075259 27.045983-72.77549 4.018523-5.29254 8.125051-10.097986 12.466939-14.768355 2.24718-2.418073 5.368264-5.631254 4.719488-4.91801 24.085558-26.473955 37.684274-61.068867 37.684274-98.04706 0-79.745229-63.259766-143.993508-140.79363-143.993508S517.950526 518.650467 517.950526 598.395696c0 37.08257 13.676487 71.768557 37.884842 98.267071-0.551562-0.604774 2.604314 2.665713 4.75735 4.983501 4.149507 4.468778 8.082072 9.024537 11.936867 13.982456 11.232832 14.447037 19.694551 29.337165 24.224728 46.682205 2.006703 7.684006 3.111874 15.589047 3.111874 23.720238v39.552831h117.754914zM508.587274 739.827869c-33.904181-37.112246-54.633295-86.813205-54.633295-141.432173 0-114.870214 91.687212-207.990055 204.790176-207.990055s204.790176 93.119841 204.790177 207.990055c0 54.462402-20.61041 104.036471-54.342676 141.113924-3.665483 4.028757-27.572986 26.152637-27.572985 49.396014v45.212738c0 30.631648-24.449855 55.464219-54.610782 55.464219H590.480422c-30.160927 0-54.610782-24.831548-54.610782-55.464219v-48.086182c0-19.825534-23.734564-42.320874-27.282366-46.204321z m79.742159 175.352727h143.716192c4.552689 0 3.586688 10.019191 2.933819 10.995425-16.20917 24.225751-44.00012 40.201607-75.561953 40.201607-31.855522 0-59.868529-16.274662-76.010161-40.879036-0.665149-1.011027-4.854565-10.317996 4.922103-10.317996z m-299.869649-792.628422a31.985482 31.985482 0 0 0-14.94334 8.429996L105.848747 298.527071a31.991622 31.991622 0 0 0-8.476046 15.08251h159.088298c17.672498 0 31.998785-14.326287 31.998785-31.998785V122.552174z m63.996547-0.933256v159.991878c0 53.016471-42.97886 95.995331-95.995332 95.995331H96.468099v447.978894c0 17.672498 14.326287 31.998785 31.998784 31.998785h255.988232c17.672498 0 31.998785 14.326287 31.998785 31.998785s-14.326287 31.998785-31.998785 31.998785H128.466883c-53.016471 0-95.995331-42.97886-95.995331-95.995331V321.16158a95.994308 95.994308 0 0 1 28.140921-67.903529L228.279147 85.71315a95.996354 95.996354 0 0 1 67.85441-28.091801H800.434202c53.016471 0 95.995331 42.97886 95.995331 95.995331v63.996546c0 17.672498-14.326287 31.998785-31.998785 31.998785s-31.998785-14.326287-31.998785-31.998785v-63.996546c0-17.672498-14.326287-31.998785-31.998785-31.998785H352.456331z" p-id="51455"></path></svg>