<?xml version="1.0" standalone="no"?><!DOCTYPE svg PUBLIC "-//W3C//DTD SVG 1.1//EN" "http://www.w3.org/Graphics/SVG/1.1/DTD/svg11.dtd"><svg t="1553556481002" class="icon" style="" viewBox="0 0 1024 1024" version="1.1" xmlns="http://www.w3.org/2000/svg" p-id="41446" xmlns:xlink="http://www.w3.org/1999/xlink" width="200" height="200"><defs><style type="text/css"></style></defs><path d="M320.009338 413.474033c-0.119727 106.033965 85.739756 191.893448 191.773721 191.773721 106.033965-0.12075 192.087876-86.174662 192.208627-192.208627 0.119727-106.033965-85.739756-191.893448-191.772698-191.772698-106.034988 0.119727-192.089923 86.173638-192.20965 192.207604zM800.116977 666.441465L547.137265 977.959408c-15.791661 19.445888-44.357254 22.408359-63.803142 6.616697a45.36828 45.36828 0 0 1-6.558369-6.545066L222.017536 665.61975c-58.647725-67.375503-94.108355-155.479097-93.998861-251.928776 0.240477-212.066907 172.349323-384.175753 384.41623-384.41623 212.066907-0.240477 383.786896 171.479513 383.54642 383.546419-0.110517 97.154737-36.292578 185.922457-95.864348 253.620302z" p-id="41447"></path></svg>