<?xml version="1.0" standalone="no"?><!DOCTYPE svg PUBLIC "-//W3C//DTD SVG 1.1//EN" "http://www.w3.org/Graphics/SVG/1.1/DTD/svg11.dtd"><svg t="1553556752955" class="icon" style="" viewBox="0 0 1024 1024" version="1.1" xmlns="http://www.w3.org/2000/svg" p-id="53287" xmlns:xlink="http://www.w3.org/1999/xlink" width="200" height="200"><defs><style type="text/css"></style></defs><path d="M116.072599 512.939395l22.587437 383.981325c0.497327 8.456602 7.500834 15.059997 15.971764 15.059997h36.5658c8.836249 0 15.999392-7.163143 15.999392-15.999392V512c0-8.836249-7.163143-15.999392-15.999392-15.999392h-59.153238c-8.836249 0-15.999392 7.163143-15.999392 15.999392 0 0.313132 0.00921 0.626263 0.027629 0.939395z m-34.931581-80.935334h158.054759c17.672498 0 31.998785 14.326287 31.998785 31.998785v479.976656c0 17.672498-14.326287 31.998785-31.998785 31.998785H109.374036c-16.942881 0-30.948873-13.205766-31.943526-30.118972l-28.233018-479.978702c-1.037632-17.641799 12.422937-32.784684 30.064736-33.822317a32.846082 32.846082 0 0 1 1.87879-0.054235z m302.047244 479.641012h404.122038a15.998369 15.998369 0 0 0 15.348569-11.484566l106.902752-363.468128a31.984459 31.984459 0 0 0 1.300622-9.028631c0-17.672498-14.326287-31.998785-31.998784-31.998785H687.970804c-45.24446 0-76.202543-45.669132-59.446927-87.697341 24.101931-60.454884 35.925211-116.770494 35.925211-169.098279 0-73.907267-27.838022-118.643144-87.703482-125.826754a490.128877 490.128877 0 0 0-2.293229 12.43931c0.829901-4.808516-3.601015 21.327748-4.946662 28.684296-2.301416 12.577456-4.652973 23.73968-7.455809 34.876322-7.320733 29.093619-17.213034 55.692417-31.254841 81.35489-35.666314 65.179488-90.317005 128.782062-163.605172 191.322443v433.924807c-0.001023 8.837272 7.16212 16.000416 15.998369 16.000416zM703.046151 389.910361c-4.442172 13.771655-9.467629 27.690666-15.075347 41.757033H878.863459c53.017494 0 95.995331 42.97886 95.995331 95.995331 0 9.168824-1.313925 18.290575-3.900843 27.086915L860.677261 929.702334c-8.010441 27.236318-33.006741 45.939285-61.396325 45.939285H367.18887c-35.344996 0-63.996546-28.652574-63.996546-63.996546V431.667394c79.287811-63.996546 136.441509-127.994116 171.46007-191.990663 52.528354-95.995331 20.530592-191.655018 84.228333-191.655018 128.292921 0 169.564907 99.571786 169.564907 190.84763 0 41.355897-6.231935 84.289732-18.695804 128.800481l-6.703679 22.240537z" p-id="53288"></path></svg>