<?xml version="1.0" standalone="no"?><!DOCTYPE svg PUBLIC "-//W3C//DTD SVG 1.1//EN" "http://www.w3.org/Graphics/SVG/1.1/DTD/svg11.dtd"><svg t="1553556757810" class="icon" style="" viewBox="0 0 1024 1024" version="1.1" xmlns="http://www.w3.org/2000/svg" p-id="53531" xmlns:xlink="http://www.w3.org/1999/xlink" width="200" height="200"><defs><style type="text/css"></style></defs><path d="M321.649698 320.009338h255.988231c17.672498 0 31.998785 14.326287 31.998785 31.998784s-14.326287 31.998785-31.998785 31.998785H321.649698c-17.672498 0-31.998785-14.326287-31.998785-31.998785s14.326287-31.998785 31.998785-31.998784z m0-127.994116h127.994115c17.672498 0 31.998785 14.326287 31.998785 31.998785s-14.326287 31.998785-31.998785 31.998784H321.649698c-17.672498 0-31.998785-14.326287-31.998785-31.998784s14.326287-31.998785 31.998785-31.998785zM129.659035 863.98254c0 17.672498 14.326287 31.998785 31.998785 31.998785h703.966103c17.672498 0 31.998785-14.326287 31.998785-31.998785V540.330232c-109.526509 57.258075-277.405007 99.663884-383.981325 99.663884s-274.454816-42.405809-383.981325-99.663884v323.652308z m95.995331-350.191754c99.272981 38.236859 220.397642 62.20576 287.985994 62.20576 67.588351 0 188.713013-23.968901 287.985993-62.20576V160.016437c0-17.672498-14.326287-31.998785-31.998784-31.998785H257.653151c-17.672498 0-31.998785 14.326287-31.998785 31.998785v353.774349z m657.82932-38.262442c9.481955-10.229992 14.139022-19.690458 14.139022-27.52489 0-11.751648-10.475586-27.160593-31.998785-43.338041v80.656994a435.766758 435.766758 0 0 0 17.859763-9.794063zM65.661466 448.00243c0-44.844348 35.875069-86.097914 95.995331-118.776173V160.016437c0-53.016471 42.97886-95.995331 95.995331-95.995331h511.975441c53.016471 0 95.995331 42.97886 95.995331 95.995331v169.20982c60.120262 32.679283 95.995331 73.931826 95.995331 118.776173v415.98011c0 53.016471-42.97886 95.995331-95.995331 95.995331H161.656797c-53.016471 0-95.995331-42.97886-95.995331-95.995331V448.00243z m78.135568 27.525914a434.536744 434.536744 0 0 0 17.859763 9.79304v-80.656994c-21.523199 16.177448-31.998785 31.587416-31.998785 43.33804 0.001023 7.835456 4.657067 17.295921 14.139022 27.525914z" p-id="53532"></path></svg>