<?xml version="1.0" standalone="no"?><!DOCTYPE svg PUBLIC "-//W3C//DTD SVG 1.1//EN" "http://www.w3.org/Graphics/SVG/1.1/DTD/svg11.dtd"><svg t="1553556556223" class="icon" style="" viewBox="0 0 1024 1024" version="1.1" xmlns="http://www.w3.org/2000/svg" p-id="44740" xmlns:xlink="http://www.w3.org/1999/xlink" width="200" height="200"><defs><style type="text/css"></style></defs><path d="M96.019891 640.670521h159.991877c17.672498 0 31.998785 14.326287 31.998785 31.998785s-14.326287 31.998785-31.998785 31.998785H96.019891c-17.672498 0-31.998785-14.326287-31.998785-31.998785s14.326287-31.998785 31.998785-31.998785z m0-319.984778h159.991877c17.672498 0 31.998785 14.326287 31.998785 31.998785s-14.326287 31.998785-31.998785 31.998785H96.019891c-17.672498 0-31.998785-14.326287-31.998785-31.998785s14.326287-31.998785 31.998785-31.998785z m671.967318-95.995331c0-17.672498-14.326287-31.998785-31.998785-31.998785s-31.998785 14.326287-31.998785 31.998785v575.971987c0 17.672498 14.326287 31.998785 31.998785 31.998785s31.998785-14.326287 31.998785-31.998785V224.690412zM160.016437 752.665245h79.995939c44.180222 0 79.995939-35.815717 79.995938-79.995939 0-44.180222-35.815717-79.995939-79.995938-79.995939h-79.995939c-17.672498 0-31.998785-14.326287-31.998785-31.998784v-95.995332c0-17.672498 14.326287-31.998785 31.998785-31.998784h79.995939c44.180222 0 79.995939-35.815717 79.995938-79.995939s-35.815717-79.995939-79.995938-79.995939h-79.995939c-17.672498 0-31.998785-14.326287-31.998785-31.998785V160.692842c0-53.016471 42.97886-95.995331 95.995331-95.995331h639.969557c53.016471 0 95.995331 42.97886 95.995331 95.995331v703.966103c0 53.016471-42.97886 95.995331-95.995331 95.995331H224.014007c-53.016471 0-95.995331-42.97886-95.995332-95.995331v-79.995939c0-17.671475 14.325263-31.997762 31.997762-31.997761z" p-id="44741"></path></svg>