<?xml version="1.0" standalone="no"?><!DOCTYPE svg PUBLIC "-//W3C//DTD SVG 1.1//EN" "http://www.w3.org/Graphics/SVG/1.1/DTD/svg11.dtd"><svg t="1553556773517" class="icon" style="" viewBox="0 0 1024 1024" version="1.1" xmlns="http://www.w3.org/2000/svg" p-id="54263" xmlns:xlink="http://www.w3.org/1999/xlink" width="200" height="200"><defs><style type="text/css"></style></defs><path d="M830.92975 128.018675l-0.008187 0.001024-41.138956 95.994308H352.007099c-35.341926 0-63.996546 28.652574-63.996546 63.996546v111.994723c0 35.344996 28.65462 63.996546 63.996546 63.996547h383.981325v95.995331H352.007099c-35.341926 0-63.996546 28.652574-63.996546 63.996546v111.994724c0 35.344996 28.65462 63.996546 63.996546 63.996546h479.976656v95.995331H192.015222V128.018675h638.914528m0-63.997569H192.015222c-35.341926 0-63.996546 28.652574-63.996547 63.996546v767.962649c0 35.343973 28.65462 63.996546 63.996547 63.996547h639.968533c35.341926 0 63.996546-28.652574 63.996546-63.996547v-95.995331c0-35.343973-28.65462-63.996546-63.996546-63.996546H352.007099V623.994724h383.981325c35.341926 0 63.996546-28.652574 63.996546-63.996547v-95.995331c0-35.344996-28.65462-63.996546-63.996546-63.996546H352.007099V288.010553h437.775508c25.600051 0 48.740074-15.256472 58.825781-38.787398l41.138955-95.995331a64.007803 64.007803 0 0 0 5.178953-25.210172c0-35.343973-28.65462-63.996546-63.996546-63.996546z" p-id="54264"></path></svg>