<?xml version="1.0" standalone="no"?><!DOCTYPE svg PUBLIC "-//W3C//DTD SVG 1.1//EN" "http://www.w3.org/Graphics/SVG/1.1/DTD/svg11.dtd"><svg t="1553556385678" class="icon" style="" viewBox="0 0 1024 1024" version="1.1" xmlns="http://www.w3.org/2000/svg" p-id="38271" xmlns:xlink="http://www.w3.org/1999/xlink" width="200" height="200"><defs><style type="text/css"></style></defs><path d="M420.432515 412.916331c12.268418 38.888705 48.625464 67.084884 91.566462 67.084884 42.942021 0 79.298044-28.196179 91.566462-67.084884 108.673072-7.395434 208.5365-27.760251 292.414862-57.686841v540.751835c0 53.016471-42.976814 95.995331-95.995331 95.995331H224.014007c-53.018517 0-95.995331-42.97886-95.995332-95.995331V355.22949c83.877339 29.92659 183.740768 50.291406 292.41384 57.686841z m180.452885-65.233724c-14.322194-35.008328-48.724725-59.672054-88.8854-59.672054s-74.563206 24.663726-88.8854 59.672054c-116.742864-11.494799-219.883943-45.237297-295.095925-93.171006V128.018675c0-53.016471 42.976814-95.995331 95.995332-95.995331h575.971986c53.018517 0 95.995331 42.97886 95.995332 95.995331v126.492926c-75.211982 47.933709-178.353061 81.676208-295.095925 93.171006z" p-id="38272"></path></svg>