<?xml version="1.0" standalone="no"?><!DOCTYPE svg PUBLIC "-//W3C//DTD SVG 1.1//EN" "http://www.w3.org/Graphics/SVG/1.1/DTD/svg11.dtd"><svg t="1553556445664" class="icon" style="" viewBox="0 0 1024 1024" version="1.1" xmlns="http://www.w3.org/2000/svg" p-id="40102" xmlns:xlink="http://www.w3.org/1999/xlink" width="200" height="200"><defs><style type="text/css"></style></defs><path d="M659.311067 616.554264a32.014134 32.014134 0 0 0 10.619872-10.617825c9.212826-15.07944 4.460592-34.773991-10.619872-43.988863L464.690508 443.010743A32.015158 32.015158 0 0 0 448.003454 438.315814c-17.672498 0-31.998785 14.326287-31.998785 31.998785v237.872642a32.012088 32.012088 0 0 0 4.693905 16.686031c9.215896 15.07944 28.910447 19.833721 43.991934 10.617825l194.620559-118.936833z m105.930611-411.28518h98.740862c53.018517 0 95.995331 42.97886 95.995331 95.995331v575.971987c0 53.016471-42.976814 95.995331-95.995331 95.995331H160.016437c-53.018517 0-95.995331-42.97886-95.995331-95.995331V301.264415c0-53.016471 42.976814-95.995331 95.995331-95.995331h98.740862l-72.565713-72.56469c-18.744923-18.7439-18.744923-49.13507 0-67.87897s49.137117-18.7439 67.877947 0l135.759987 135.75794a48.414663 48.414663 0 0 1 4.117784 4.68572h236.104369a48.553833 48.553833 0 0 1 4.117784-4.68572L769.929444 64.825424c18.74083-18.7439 49.134047-18.7439 67.87897 0 18.744923 18.7439 18.744923 49.13507 0 67.87897l-72.566736 72.56469z" p-id="40103"></path></svg>