<?xml version="1.0" standalone="no"?><!DOCTYPE svg PUBLIC "-//W3C//DTD SVG 1.1//EN" "http://www.w3.org/Graphics/SVG/1.1/DTD/svg11.dtd"><svg t="1553556605532" class="icon" style="" viewBox="0 0 1024 1024" version="1.1" xmlns="http://www.w3.org/2000/svg" p-id="46939" xmlns:xlink="http://www.w3.org/1999/xlink" width="200" height="200"><defs><style type="text/css"></style></defs><path d="M640.45972 383.54028c17.736966 0 32.115442 14.378475 32.115442 32.115441v192.689581c0 17.736966-14.378475 32.115442-32.115442 32.115442s-32.115442-14.378475-32.115441-32.115442V415.654698c0.001023-17.735943 14.379499-32.114418 32.115441-32.114418z m128.459721 64.22986c17.736966 0 32.115442 14.378475 32.115441 32.115442v64.22986c0 17.736966-14.378475 32.115442-32.115441 32.115441s-32.115442-14.378475-32.115442-32.115441v-64.22986c0.001023-17.736966 14.379499-32.115442 32.115442-32.115442z m-513.839905 0c17.736966 0 32.115442 14.378475 32.115442 32.115442v64.22986c0 17.736966-14.378475 32.115442-32.115442 32.115441s-32.115442-14.378475-32.115442-32.115441v-64.22986c0.001023-17.736966 14.379499-32.115442 32.115442-32.115442z m128.460744-64.22986c17.736966 0 32.115442 14.378475 32.115441 32.115441v192.689581c0 17.736966-14.378475 32.115442-32.115441 32.115442s-32.115442-14.378475-32.115442-32.115442V415.654698c0-17.735943 14.378475-32.114418 32.115442-32.114418z m128.45972-96.345302c17.736966 0 32.115442 14.378475 32.115442 32.115442v385.380184c0 17.736966-14.378475 32.115442-32.115442 32.115442s-32.115442-14.378475-32.115442-32.115442V319.309396c0-17.735943 14.378475-32.114418 32.115442-32.114418z m0 610.185206c212.839503 0 385.380184-172.540681 385.380184-385.380184S724.839503 126.619816 512 126.619816 126.619816 299.160497 126.619816 512s172.540681 385.380184 385.380184 385.380184z m0 64.22986c-248.312412 0-449.610044-201.297632-449.610044-449.610044s201.297632-449.610044 449.610044-449.610044 449.610044 201.297632 449.610044 449.610044-201.297632 449.610044-449.610044 449.610044z" p-id="46940"></path></svg>