<?xml version="1.0" standalone="no"?><!DOCTYPE svg PUBLIC "-//W3C//DTD SVG 1.1//EN" "http://www.w3.org/Graphics/SVG/1.1/DTD/svg11.dtd"><svg t="1553556589819" class="icon" style="" viewBox="0 0 1024 1024" version="1.1" xmlns="http://www.w3.org/2000/svg" p-id="46206" xmlns:xlink="http://www.w3.org/1999/xlink" width="200" height="200"><defs><style type="text/css"></style></defs><path d="M288.010553 863.98254c0-17.672498 14.034645-31.998785 31.957852-31.998785H928.020018c17.649985 0 31.958876 14.20349 31.958876 31.998785 0 17.672498-14.034645 31.998785-31.958876 31.998785H319.968405c-17.649985 0-31.957853-14.202467-31.957852-31.998785z m0-351.98254c0-17.672498 14.034645-31.998785 31.957852-31.998785H928.020018c17.649985 0 31.958876 14.202467 31.958876 31.998785 0 17.672498-14.034645 31.998785-31.958876 31.998785H319.968405c-17.649985 0-31.957853-14.20349-31.957852-31.998785z m0-351.983563c0-17.672498 14.034645-31.998785 31.957852-31.998785H928.020018c17.649985 0 31.958876 14.202467 31.958876 31.998785 0 17.672498-14.034645 31.998785-31.958876 31.998785H319.968405c-17.649985 0-31.957853-14.202467-31.957852-31.998785zM64.021106 863.98254c0-17.672498 14.198374-31.998785 31.992645-31.998785h96.007611c17.668405 0 31.992645 14.20349 31.992645 31.998785 0 17.672498-14.198374 31.998785-31.992645 31.998785h-96.007611c-17.669428 0-31.992645-14.202467-31.992645-31.998785z m0-351.98254c0-17.672498 14.198374-31.998785 31.992645-31.998785h96.007611c17.668405 0 31.992645 14.202467 31.992645 31.998785 0 17.672498-14.198374 31.998785-31.992645 31.998785h-96.007611c-17.669428 0-31.992645-14.20349-31.992645-31.998785z m0-351.983563c0-17.672498 14.198374-31.998785 31.992645-31.998785h96.007611c17.668405 0 31.992645 14.202467 31.992645 31.998785 0 17.672498-14.198374 31.998785-31.992645 31.998785h-96.007611c-17.669428 0-31.992645-14.202467-31.992645-31.998785z" p-id="46207"></path></svg>