<?xml version="1.0" standalone="no"?><!DOCTYPE svg PUBLIC "-//W3C//DTD SVG 1.1//EN" "http://www.w3.org/Graphics/SVG/1.1/DTD/svg11.dtd"><svg t="1553556722803" class="icon" style="" viewBox="0 0 1024 1024" version="1.1" xmlns="http://www.w3.org/2000/svg" p-id="52186" xmlns:xlink="http://www.w3.org/1999/xlink" width="200" height="200"><defs><style type="text/css"></style></defs><path d="M481.684554 548.33351c-12.912078-12.912078-13.93743-33.508161-2.369977-47.638997L838.222853 62.235436c5.596462-6.837732 15.677051-7.842619 22.514783-2.246157a15.996322 15.996322 0 0 1 5.864568 12.368702l0.067538 90.905406 90.918709 0.067539c8.836249 0.00614 15.994276 7.175423 15.987113 16.010648a15.998369 15.998369 0 0 1-5.862521 12.366656L529.319457 550.699394c-14.127765 11.568477-34.723849 10.546194-47.634903-2.365884z m-92.049463-260.471337c15.994276-7.516184 35.053354-0.64366 42.569538 15.349593 7.516184 15.994276 0.64366 35.053354-15.349593 42.569538-66.85771 31.420617-110.443391 98.694813-110.443391 173.869956 0 106.033965 85.956697 191.990662 191.990662 191.990663 68.070328 0 129.933281-35.685757 164.489308-92.91211 9.135054-15.128559 28.804023-19.986193 43.932582-10.851139 15.127536 9.135054 19.986193 28.804023 10.851139 43.932582-46.026266 76.221985-128.553864 123.828236-219.273029 123.828236-141.377938 0-255.987209-114.609271-255.987208-255.987208 0-100.209306 58.118676-189.916421 147.219992-231.790111zM602.236164 83.776032c17.194614 4.081968 27.824719 21.329794 23.741727 38.524408-4.081968 17.194614-21.329794 27.824719-38.523385 23.742751-28.931936-6.868431-58.750055-10.372232-89.052199-10.372232-212.066907 0-383.981325 171.914418-383.981324 383.981325S286.335401 903.633608 498.402307 903.633608s383.981325-171.914418 383.981325-383.981324c0-29.750581-3.377934-59.035558-10.000772-87.474261-4.00829-17.21201 6.694469-34.413787 23.90648-38.422078 17.21201-4.00829 34.413787 6.694469 38.423101 23.905457 7.730055 33.189913 11.668761 67.344804 11.668761 101.990882 0 247.411903-200.566992 447.978894-447.978895 447.978894s-447.978894-200.568015-447.978894-447.979918S250.990405 71.673389 498.402307 71.673389c35.288714 0 70.067822 4.086062 103.833857 12.102643z" p-id="52187"></path></svg>