<?xml version="1.0" standalone="no"?><!DOCTYPE svg PUBLIC "-//W3C//DTD SVG 1.1//EN" "http://www.w3.org/Graphics/SVG/1.1/DTD/svg11.dtd"><svg t="1553556838253" class="icon" style="" viewBox="0 0 1024 1024" version="1.1" xmlns="http://www.w3.org/2000/svg" p-id="57319" xmlns:xlink="http://www.w3.org/1999/xlink" width="200" height="200"><defs><style type="text/css"></style></defs><path d="M703.990662 543.998785c-35.344996 0-63.996546 28.652574-63.996546 63.996546s28.652574 63.996546 63.996546 63.996547h127.994116c35.344996 0 63.996546-28.652574 63.996547-63.996547s-28.652574-63.996546-63.996547-63.996546H703.990662z m0-63.99757h127.994116c70.688969 0 127.994116 57.305147 127.994116 127.994116s-57.305147 127.994116-127.994116 127.994116H703.990662c-70.688969 0-127.994116-57.305147-127.994116-127.994116s57.305147-127.994116 127.994116-127.994116zM339.429643 256.011768h396.559804V155.801439c0-3.774977-0.668219-7.520277-1.972934-11.06194-6.109138-16.582677-24.505114-25.073048-41.087791-18.962888L339.429643 256.011768z m-185.66356 0.200568L670.803819 65.724911c49.748031-18.328437 104.934934 7.142677 123.263371 56.890708a95.990215 95.990215 0 0 1 5.918803 33.18582v100.211352h31.998785c53.016471 0 95.995331 42.97886 95.995331 95.995331v63.996547c0 17.672498-14.326287 31.998785-31.998784 31.998785s-31.998785-14.326287-31.998785-31.998785v-63.996547c0-17.672498-14.326287-31.998785-31.998785-31.998784H160.016437c-17.672498 0-31.998785 14.326287-31.998785 31.998784v511.975441c0 17.672498 14.326287 31.998785 31.998785 31.998785h671.967318c17.672498 0 31.998785-14.326287 31.998785-31.998785v-63.996546c0-17.672498 14.326287-31.998785 31.998785-31.998785s31.998785 14.326287 31.998784 31.998785v63.996546c0 53.016471-42.97886 95.995331-95.995331 95.995331H160.016437c-53.016471 0-95.995331-42.97886-95.995331-95.995331V352.007099c0-50.916647 39.641859-92.574419 89.744977-95.794763z" p-id="57320"></path></svg>