<?xml version="1.0" standalone="no"?><!DOCTYPE svg PUBLIC "-//W3C//DTD SVG 1.1//EN" "http://www.w3.org/Graphics/SVG/1.1/DTD/svg11.dtd"><svg t="1553556755202" class="icon" style="" viewBox="0 0 1024 1024" version="1.1" xmlns="http://www.w3.org/2000/svg" p-id="53409" xmlns:xlink="http://www.w3.org/1999/xlink" width="200" height="200"><defs><style type="text/css"></style></defs><path d="M336.00873 256.011768c-26.508747 0-47.998177-21.48943-47.998177-47.998177s21.48943-47.998177 47.998177-47.998177 47.998177 21.48943 47.998177 47.998177-21.490453 47.998177-47.998177 47.998177z m-15.999392 671.968341h383.981324c17.672498 0 31.998785 14.326287 31.998785 31.998785s-14.326287 31.998785-31.998785 31.998785H320.009338c-17.672498 0-31.998785-14.326287-31.998785-31.998785s14.326287-31.998785 31.998785-31.998785z m511.97544-404.280649l-158.714791-188.417277-231.342926 231.342925c-12.405541 12.405541-32.486902 12.508895-45.019332 0.230244L288.832268 460.97079l-96.817046 96.328929v242.686274c0 17.672498 14.326287 31.998785 31.998785 31.998785h575.971986c17.672498 0 31.998785-14.326287 31.998785-31.998785V523.69946z m0-99.336426V128.018675c0-17.672498-14.326287-31.998785-31.998785-31.998784H224.014007c-17.672498 0-31.998785 14.326287-31.998785 31.998784v339.003948l74.075089-73.701583c12.414751-12.352329 32.453133-12.429077 44.963051-0.172938l108.018156 105.82828 233.592152-233.592153c13.256932-13.256932 35.020608-12.32777 47.098691 2.01182l132.222417 156.966985zM128.018675 544.004925V128.017652c0-53.016471 42.97886-95.995331 95.995332-95.995331h575.971986c53.016471 0 95.995331 42.97886 95.995332 95.995331v671.967318c0 53.016471-42.97886 95.995331-95.995332 95.995331H224.014007c-53.016471 0-95.995331-42.97886-95.995332-95.995331v-255.980045z" p-id="53410"></path></svg>