<?xml version="1.0" standalone="no"?><!DOCTYPE svg PUBLIC "-//W3C//DTD SVG 1.1//EN" "http://www.w3.org/Graphics/SVG/1.1/DTD/svg11.dtd"><svg t="1553556611667" class="icon" style="" viewBox="0 0 1024 1024" version="1.1" xmlns="http://www.w3.org/2000/svg" p-id="47183" xmlns:xlink="http://www.w3.org/1999/xlink" width="200" height="200"><defs><style type="text/css"></style></defs><path d="M64.021106 853.294107c0-11.769045 9.455349-21.310352 21.263279-21.310352H938.713568c11.743462 0 21.263279 9.44307 21.26328 21.310352v21.376866c0 11.769045-9.455349 21.310352-21.26328 21.310352H85.285408c-11.743462 0-21.263279-9.44307-21.263279-21.310352v-21.376866z m0-351.98254c0-11.769045 9.455349-21.310352 21.263279-21.310352H938.713568c11.743462 0 21.263279 9.44307 21.26328 21.310352v21.376866c0 11.769045-9.455349 21.310352-21.26328 21.310352H85.285408c-11.743462 0-21.263279-9.44307-21.263279-21.310352v-21.376866z m0-351.983563c0-11.769045 9.455349-21.310352 21.263279-21.310352H938.713568c11.743462 0 21.263279 9.44307 21.26328 21.310352v21.376866c0 11.769045-9.455349 21.310352-21.26328 21.310352H85.285408c-11.743462 0-21.263279-9.44307-21.263279-21.310352v-21.376866z" p-id="47184"></path></svg>