<?xml version="1.0" standalone="no"?><!DOCTYPE svg PUBLIC "-//W3C//DTD SVG 1.1//EN" "http://www.w3.org/Graphics/SVG/1.1/DTD/svg11.dtd"><svg t="1553556744855" class="icon" style="" viewBox="0 0 1024 1024" version="1.1" xmlns="http://www.w3.org/2000/svg" p-id="52921" xmlns:xlink="http://www.w3.org/1999/xlink" width="200" height="200"><defs><style type="text/css"></style></defs><path d="M828.768527 557.252647c-12.495592 12.496615-32.756031 12.496615-45.252647 0-12.495592-12.495592-12.495592-32.756031 0-45.252647l67.87897-67.87897c74.977645-74.977645 74.977645-196.539258 0-271.51588-74.976622-74.977645-196.538235-74.977645-271.51588 0L421.494707 330.989413c-74.976622 74.976622-74.976622 196.538235 0 271.51588 12.496615 12.495592 12.496615 32.756031 0 45.252647-12.495592 12.495592-32.756031 12.495592-45.252647 0-99.969852-99.968829-99.969852-262.051321 0-362.021174l158.384263-158.384263c99.969852-99.968829 262.051321-99.968829 362.021174 0 99.968829 99.969852 99.968829 262.052345 0 362.021174l-67.87897 67.87897zM647.75794 376.24206c99.969852 99.968829 99.969852 262.051321 0 362.021174L489.373677 896.647497c-99.968829 99.969852-262.051321 99.969852-362.021174 0s-99.969852-262.052345 0-362.021174l45.252647-45.252646c12.496615-12.495592 32.756031-12.495592 45.252646 0 12.496615 12.496615 12.496615 32.756031 0 45.252646l-45.252646 45.252647c-74.976622 74.977645-74.976622 196.539258 0 271.51588s196.539258 74.976622 271.51588 0l158.384263-158.384263c74.976622-74.976622 74.976622-196.538235 0-271.51588-12.496615-12.495592-12.496615-32.756031 0-45.252647 12.495592-12.496615 32.756031-12.496615 45.252647 0z" p-id="52922"></path></svg>