<?xml version="1.0" standalone="no"?><!DOCTYPE svg PUBLIC "-//W3C//DTD SVG 1.1//EN" "http://www.w3.org/Graphics/SVG/1.1/DTD/svg11.dtd"><svg t="1573761511845" class="icon" viewBox="0 0 1024 1024" version="1.1" xmlns="http://www.w3.org/2000/svg" p-id="4923" xmlns:xlink="http://www.w3.org/1999/xlink" width="200" height="200"><defs><style type="text/css"></style></defs><path d="M488 488V192a16 16 0 0 1 16-16h16a16 16 0 0 1 16 16v296H832a16 16 0 0 1 16 16v16a16 16 0 0 1-16 16H536V832a16 16 0 0 1-16 16h-16a16 16 0 0 1-16-16V536H192a16 16 0 0 1-16-16v-16a16 16 0 0 1 16-16h296z" p-id="4924"></path></svg>